<svg xmlns="http://www.w3.org/2000/svg" aria-hidden="true" style="position:absolute;width:0;height:0;overflow:hidden"><defs>
<symbol id="icon-facebook" viewBox="0 0 32 32"><path d="M21.328 5.312h2.923V.224A36.483 36.483 0 0 0 20.143 0h-.156.008c-4.213 0-7.099 2.65-7.099 7.52V12H8.25v5.688h4.646V32h5.699V17.69h4.459l.707-5.688h-5.168V8.08c0-1.643.443-2.768 2.734-2.768z" /></symbol>
<symbol id="icon-instagram" viewBox="0 0 32 32"><path  d="M31.968 9.408c-.074-1.701-.349-2.869-.742-3.882a7.839 7.839 0 0 0-1.85-2.837l-.001-.001A7.906 7.906 0 0 0 26.597.861l-.054-.018C25.524.449 24.362.176 22.661.101 20.949.019 20.405 0 16.059 0c-4.344 0-4.888.019-6.595.094-1.699.074-2.869.349-3.88.742a7.847 7.847 0 0 0-2.839 1.85l-.001.001A7.9 7.9 0 0 0 .919 5.465l-.018.054C.506 6.538.232 7.7.157 9.401c-.082 1.712-.101 2.256-.101 6.602 0 4.344.019 4.888.094 6.595.075 1.701.35 2.869.744 3.882a7.915 7.915 0 0 0 1.849 2.837l.001.001c.8.813 1.77 1.443 2.832 1.843 1.019.395 2.182.67 3.882.744 1.707.075 2.251.094 6.595.094 4.346 0 4.89-.019 6.595-.094 1.701-.074 2.869-.349 3.882-.742a8.237 8.237 0 0 0 4.664-4.628l.019-.055c.394-1.019.669-2.182.744-3.882.075-1.707.093-2.251.093-6.595s-.006-4.888-.08-6.595zm-2.88 13.066c-.07 1.563-.333 2.406-.55 2.97a5.341 5.341 0 0 1-3.004 3.024l-.036.012c-.56.219-1.411.482-2.968.55-1.688.075-2.194.094-6.464.094-4.269 0-4.782-.019-6.464-.094-1.563-.069-2.406-.331-2.97-.55a4.953 4.953 0 0 1-1.836-1.192l-.001-.001a4.978 4.978 0 0 1-1.184-1.803L3.6 25.45c-.218-.563-.48-1.413-.549-2.97-.075-1.688-.094-2.195-.094-6.464 0-4.27.019-4.784.094-6.464.069-1.563.331-2.406.549-2.97a4.897 4.897 0 0 1 1.198-1.837l.002-.002a4.972 4.972 0 0 1 1.806-1.182l.034-.011c.56-.219 1.411-.48 2.968-.55 1.688-.074 2.195-.093 6.464-.093 4.275 0 4.782.019 6.464.093 1.563.069 2.406.331 2.97.55a4.91 4.91 0 0 1 1.837 1.194c.531.52.938 1.144 1.195 1.84.218.56.48 1.411.549 2.968.075 1.688.094 2.194.094 6.464 0 4.269-.019 4.768-.094 6.458z" /><path  d="M16.059 7.782a8.223 8.223 0 0 0-8.219 8.221 8.223 8.223 0 0 0 16.442.008v-.009a8.223 8.223 0 0 0-8.221-8.221zm0 13.552a5.333 5.333 0 0 1 .001-10.666h.001a5.334 5.334 0 1 1 0 10.668zM26.525 7.458a1.92 1.92 0 0 1-3.84 0 1.92 1.92 0 0 1 3.84 0z" /></symbol>
<symbol id="icon-linkedin" viewBox="0 0 32 32"><path  d="M31.992 32H32V20.262c0-5.741-1.237-10.163-7.947-10.163-3.227 0-5.392 1.77-6.277 3.45h-.093v-2.914h-6.365v21.363h6.627V21.42c0-2.786.528-5.48 3.978-5.48 3.398 0 3.448 3.179 3.448 5.658V32h6.621zM.528 10.635h6.635V32H.528V10.635zM3.843 0A3.843 3.843 0 0 0 0 3.843c0 2.12 1.722 3.878 3.843 3.878 2.12 0 3.842-1.757 3.842-3.878S5.965.002 3.844 0z" /></symbol>
<symbol id="icon-twitter" viewBox="0 0 32 32"><path  d="M32 6.078c-1.1.493-2.376.857-3.713 1.028l-.068.007a6.556 6.556 0 0 0 2.873-3.579l.013-.046a12.89 12.89 0 0 1-4.076 1.573l-.084.014A6.558 6.558 0 0 0 15.6 9.557v.004c0 .52.043 1.021.152 1.496-5.454-.266-10.28-2.88-13.522-6.861a6.524 6.524 0 0 0-.902 3.313v.001a6.57 6.57 0 0 0 2.914 5.451 6.453 6.453 0 0 1-2.994-.823l.033.017v.072a6.592 6.592 0 0 0 5.213 6.44l.043.008a6.403 6.403 0 0 1-1.662.215h-.061.003c-.419 0-.843-.024-1.242-.112.85 2.598 3.261 4.509 6.13 4.57a13.096 13.096 0 0 1-8.123 2.8H1.57h.001c-.538 0-1.053-.026-1.57-.091 2.827 1.846 6.287 2.944 10.004 2.944h.063-.003c12.072 0 18.672-10 18.672-18.669 0-.288-.01-.57-.024-.848a13.19 13.19 0 0 0 3.258-3.356l.03-.047z" /></symbol>
<symbol id="icon-css3" viewBox="0 0 32 32">
<path fill="#1572b6" style="fill: var(--color1, #1572b6)" d="M4.918 6.5l2.017 22.623 9.052 2.512 9.077-2.516 2.020-22.62h-22.165zM22.22 19.122l-0.587 5.473 0.002 0.469-5.639 1.578-5.68-1.556-0.384-4.335h2.785l0.197 2.192 3.087 0.824-0.001 0.004v-0.008l3.098-0.874 0.327-3.637h-6.477l-0.056-0.589-0.127-1.412-0.066-0.75h6.972l0.253-2.75h-10.618l-0.056-0.647-0.127-1.508-0.066-0.845h13.899l-0.067 0.834-0.671 7.538zM22.25 3.594l-1.787-2.094h1.787v-1.25h-4v1.091l2.098 1.909h-2.098v1.25h4zM17.5 3.594l-1.702-2.094h1.702v-1.25h-3.75v1.091l1.933 1.909h-1.933v1.25h3.75zM13 3.25h-2v-1.75h2v-1.25h-3.5v4.25h3.5z"></path>
</symbol>
<symbol id="icon-figma" viewBox="0 0 32 32">
<path fill="#0acf83" style="fill: var(--color2, #0acf83)" d="M11.375 32.25c2.975 0 5.375-2.4 5.375-5.375v-5.375h-5.375c-2.975 0-5.375 2.4-5.375 5.375s2.4 5.375 5.375 5.375z"></path>
<path fill="#a259ff" style="fill: var(--color3, #a259ff)" d="M6 16.125c0-2.975 2.4-5.375 5.375-5.375h5.375v10.75h-5.375c-2.975 0-5.375-2.4-5.375-5.375z"></path>
<path fill="#f24e1e" style="fill: var(--color4, #f24e1e)" d="M6 5.375c0-2.975 2.4-5.375 5.375-5.375h5.375v10.75h-5.375c-2.975 0-5.375-2.4-5.375-5.375z"></path>
<path fill="#ff7262" style="fill: var(--color5, #ff7262)" d="M16.75 0h5.375c2.975 0 5.375 2.4 5.375 5.375s-2.4 5.375-5.375 5.375h-5.375z"></path>
<path fill="#1abcfe" style="fill: var(--color6, #1abcfe)" d="M27.5 16.125c0 2.975-2.4 5.375-5.375 5.375s-5.375-2.4-5.375-5.375 2.4-5.375 5.375-5.375 5.375 2.4 5.375 5.375z"></path>
</symbol>
<symbol id="icon-git" viewBox="0 0 32 32">
<path fill="#31251c" style="fill: var(--color7, #31251c)" d="M19.099 13.919c-0.684 0-1.194 0.336-1.194 1.145 0 0.609 0.336 1.032 1.157 1.032 0.696 0 1.169-0.41 1.169-1.058 0-0.733-0.423-1.12-1.132-1.12zM17.732 19.629c-0.162 0.199-0.323 0.41-0.323 0.659 0 0.497 0.634 0.647 1.505 0.647 0.721 0 1.704-0.050 1.704-0.721 0-0.399-0.473-0.423-1.070-0.461l-1.816-0.124zM21.413 13.957c0.224 0.286 0.46 0.684 0.46 1.257 0 1.381-1.082 2.189-2.649 2.189-0.398 0-0.759-0.049-0.983-0.112l-0.41 0.659 1.219 0.074c2.152 0.137 3.421 0.2 3.421 1.853 0 1.431-1.256 2.239-3.421 2.239-2.252 0-3.11-0.572-3.11-1.555 0-0.56 0.249-0.858 0.684-1.269-0.411-0.174-0.547-0.484-0.547-0.82 0-0.274 0.137-0.523 0.361-0.759s0.473-0.473 0.771-0.746c-0.61-0.299-1.070-0.945-1.070-1.866 0-1.43 0.945-2.412 2.848-2.412 0.535 0 0.859 0.049 1.145 0.124h2.426v1.057l-1.145 0.087zM24.746 11.697c-0.709 0-1.12-0.411-1.12-1.12 0-0.708 0.41-1.094 1.12-1.094 0.721 0 1.132 0.386 1.132 1.094s-0.41 1.12-1.132 1.12zM23.141 19.172v-0.982l0.635-0.087c0.174-0.025 0.199-0.062 0.199-0.249v-3.657c0-0.136-0.037-0.224-0.162-0.261l-0.672-0.236 0.137-1.007h2.575v5.162c0 0.2 0.012 0.224 0.199 0.249l0.634 0.087v0.982l-3.546-0zM31.605 18.689c-0.535 0.261-1.319 0.497-2.028 0.497-1.48 0-2.040-0.596-2.040-2.003v-3.259c0-0.074 0-0.124-0.1-0.124h-0.87v-1.107c1.095-0.125 1.53-0.672 1.667-2.028h1.182v1.767c0 0.087 0 0.124 0.099 0.124h1.754v1.244h-1.853v2.972c0 0.734 0.174 1.020 0.846 1.020 0.349 0 0.709-0.087 1.008-0.199l0.336 1.095z"></path>
<path fill="#f34f29" style="fill: var(--color8, #f34f29)" d="M13.175 15.425l-5.687-5.687c-0.152-0.152-0.361-0.246-0.593-0.246s-0.441 0.094-0.593 0.246l-1.181 1.181 1.498 1.498c0.096-0.034 0.206-0.053 0.321-0.053 0.275 0 0.524 0.112 0.704 0.292v0c0.18 0.18 0.292 0.43 0.292 0.705 0 0.117-0.020 0.229-0.057 0.334l0.002-0.007 1.444 1.444c0.098-0.035 0.211-0.056 0.328-0.056 0.551 0 0.997 0.446 0.997 0.997 0 0.276-0.112 0.526-0.294 0.707l-0 0c-0.181 0.181-0.43 0.293-0.706 0.293-0.551 0-0.998-0.447-0.998-0.998 0-0.137 0.028-0.268 0.078-0.387l-0.002 0.007-1.346-1.347-0 3.543c0.332 0.167 0.556 0.505 0.556 0.895 0 0.275-0.112 0.525-0.292 0.705v0c-0.181 0.181-0.43 0.292-0.706 0.292-0.551 0-0.998-0.447-0.998-0.998 0-0.415 0.253-0.77 0.613-0.921l0.007-0.002v-3.576c-0.367-0.153-0.619-0.508-0.619-0.923 0-0.139 0.029-0.272 0.080-0.392l-0.002 0.007-1.476-1.477-3.9 3.899c-0.152 0.152-0.246 0.362-0.246 0.593s0.094 0.442 0.246 0.593l5.687 5.687c0.152 0.152 0.362 0.246 0.593 0.246s0.441-0.094 0.593-0.246l5.66-5.661c0.152-0.152 0.246-0.362 0.246-0.593s-0.094-0.441-0.246-0.593v0z"></path>
</symbol>
<symbol id="icon-github" viewBox="0 0 32 32">
<path fill="#181616" style="fill: var(--color9, #181616)" d="M16 0.378c-5.873 0-10.636 4.762-10.636 10.636 0 4.699 3.047 8.686 7.274 10.092 0.531 0.099 0.727-0.231 0.727-0.512 0-0.253-0.010-1.091-0.014-1.98-2.959 0.643-3.583-1.255-3.583-1.255-0.484-1.23-1.181-1.556-1.181-1.556-0.965-0.66 0.072-0.646 0.072-0.646 1.068 0.075 1.631 1.096 1.631 1.096 0.948 1.626 2.488 1.156 3.095 0.884 0.096-0.688 0.371-1.157 0.675-1.422-2.362-0.269-4.846-1.181-4.846-5.256 0-1.161 0.415-2.11 1.096-2.855-0.111-0.268-0.475-1.35 0.103-2.815 0 0 0.893-0.285 2.925 1.091 0.849-0.236 1.759-0.354 2.662-0.358 0.904 0.004 1.815 0.122 2.664 0.358 2.030-1.376 2.922-1.091 2.922-1.091 0.579 1.465 0.215 2.547 0.105 2.815 0.682 0.745 1.095 1.694 1.095 2.855 0 4.085-2.488 4.984-4.857 5.248 0.381 0.33 0.721 0.977 0.721 1.97 0 1.423-0.012 2.568-0.012 2.919 0 0.282 0.192 0.614 0.73 0.51 4.224-1.408 7.267-5.393 7.267-10.091 0-5.873-4.761-10.635-10.636-10.635z"></path>
<path fill="#181616" style="fill: var(--color9, #181616)" d="M9.393 15.649c-0.024 0.053-0.107 0.069-0.182 0.033-0.078-0.035-0.12-0.107-0.095-0.16 0.023-0.054 0.106-0.069 0.183-0.033 0.078 0.035 0.121 0.107 0.095 0.161zM9.823 16.13c-0.051 0.047-0.15 0.025-0.217-0.049-0.069-0.074-0.082-0.174-0.031-0.221s0.148-0.025 0.217 0.049c0.070 0.075 0.084 0.173 0.031 0.221zM10.242 16.742c-0.065 0.046-0.172 0.003-0.238-0.092s-0.066-0.207 0.001-0.253c0.066-0.046 0.171-0.005 0.238 0.089 0.066 0.096 0.066 0.21-0.001 0.256zM10.817 17.334c-0.058 0.064-0.182 0.047-0.273-0.041-0.093-0.086-0.119-0.207-0.060-0.272s0.184-0.046 0.275 0.041c0.092 0.085 0.12 0.207 0.058 0.271zM11.61 17.677c-0.026 0.084-0.146 0.121-0.266 0.086-0.12-0.037-0.199-0.134-0.175-0.218 0.025-0.084 0.146-0.123 0.267-0.085 0.12 0.036 0.199 0.133 0.174 0.218zM12.48 17.741c0.003 0.087-0.099 0.16-0.226 0.162-0.127 0.003-0.23-0.068-0.232-0.154 0-0.088 0.1-0.16 0.227-0.163s0.23 0.068 0.23 0.155zM13.29 17.604c0.015 0.085-0.072 0.174-0.198 0.197-0.123 0.023-0.238-0.030-0.254-0.115-0.015-0.087 0.074-0.175 0.197-0.198 0.126-0.022 0.238 0.029 0.254 0.116z"></path>
<path fill="#100e0f" style="fill: var(--color10, #100e0f)" d="M6.214 27.076h-2.675c-0.069 0-0.125 0.056-0.125 0.125v0 1.308c0 0.069 0.056 0.125 0.125 0.125v0h1.043v1.625s-0.234 0.080-0.882 0.080c-0.764 0-1.832-0.279-1.832-2.627s1.112-2.657 2.156-2.657c0.904 0 1.293 0.159 1.54 0.236 0.077 0.023 0.15-0.054 0.15-0.123l0.298-1.264c0-0.001 0-0.002 0-0.003 0-0.039-0.019-0.073-0.048-0.094l-0-0c-0.101-0.072-0.714-0.415-2.264-0.415-1.786 0-3.618 0.759-3.618 4.412s2.098 4.197 3.865 4.197c1.464 0 2.351-0.625 2.351-0.625 0.037-0.020 0.040-0.071 0.040-0.095v-4.079c0-0.069-0.056-0.125-0.125-0.125v0zM19.877 23.703h-1.506c-0.069 0-0.125 0.056-0.125 0.125 0 0 0 0.001 0 0.001v-0l0 2.911h-2.348v-2.911c0-0 0-0 0-0.001 0-0.069-0.056-0.125-0.124-0.125h-1.506c-0.069 0-0.124 0.056-0.124 0.125 0 0 0 0.001 0 0.001v-0 7.883c0 0.069 0.056 0.126 0.124 0.126h1.506c0.069-0 0.124-0.056 0.124-0.125 0-0 0-0.001 0-0.001v0-3.372h2.348l-0.004 3.372c0 0.070 0.056 0.126 0.125 0.126h1.509c0.069-0 0.124-0.056 0.124-0.125 0-0 0-0.001 0-0.001v0-7.883c0-0 0-0.001 0-0.001 0-0.069-0.056-0.124-0.124-0.124 0 0 0 0 0 0v0zM8.085 23.882c-0.536 0-0.971 0.438-0.971 0.981s0.435 0.981 0.971 0.981c0.537 0 0.971-0.439 0.971-0.981s-0.435-0.981-0.971-0.981zM8.824 26.284h-1.502c-0.069 0-0.13 0.071-0.13 0.14v5.213c0 0.153 0.096 0.199 0.219 0.199h1.353c0.149 0 0.185-0.073 0.185-0.201v-5.225c0-0 0-0 0-0 0-0.069-0.056-0.125-0.124-0.125h-0zM25.726 26.296h-1.495c-0.069 0.001-0.124 0.056-0.124 0.125 0 0 0 0.001 0 0.001v-0 3.865s-0.38 0.277-0.919 0.277-0.682-0.244-0.682-0.772v-3.37c0-0 0-0.001 0-0.001 0-0.069-0.056-0.125-0.124-0.125h-1.517c-0.069 0.001-0.125 0.057-0.125 0.125 0 0 0 0 0 0.001v-0 3.625c0 1.567 0.874 1.951 2.076 1.951 0.986 0 1.781-0.545 1.781-0.545s0.038 0.288 0.055 0.321c0.017 0.034 0.062 0.068 0.11 0.068l0.965-0.004c0.069-0 0.125-0.056 0.125-0.125 0-0 0-0 0-0.001v0l-0.001-5.291c-0-0.069-0.056-0.125-0.125-0.125h-0zM29.811 26.119c-0.849 0-1.427 0.379-1.427 0.379v-2.669c0-0 0-0 0-0.001 0-0.069-0.056-0.125-0.124-0.125h-1.51c0 0 0 0 0 0-0.069 0-0.125 0.056-0.125 0.125 0 0 0 0.001 0 0.001v-0 7.883c0 0 0 0 0 0.001 0 0.069 0.056 0.125 0.125 0.125 0 0 0 0 0 0h1.048c0.047 0 0.083-0.024 0.109-0.067s0.064-0.363 0.064-0.363 0.617 0.585 1.787 0.585c1.372 0 2.16-0.696 2.16-3.125s-1.258-2.747-2.107-2.747zM29.221 30.559c-0.518-0.016-0.87-0.251-0.87-0.251v-2.496s0.347-0.212 0.773-0.251c0.538-0.048 1.057 0.114 1.057 1.398 0 1.354-0.234 1.622-0.959 1.599zM13.299 30.53c-0.066 0-0.234 0.027-0.408 0.027-0.555 0-0.743-0.258-0.743-0.592v-2.216h1.13c0 0 0 0 0 0 0.069 0 0.125-0.056 0.125-0.125 0-0 0-0.001 0-0.001v0-1.214c0-0 0-0 0-0 0-0.069-0.056-0.125-0.125-0.125 0 0 0 0 0 0h-1.13l-0.002-1.492c0-0.057-0.029-0.085-0.095-0.085h-1.54c-0.059 0-0.092 0.026-0.092 0.084v1.543s-0.772 0.186-0.824 0.201c-0.052 0.016-0.090 0.063-0.090 0.12v0.969c0 0 0 0 0 0.001 0 0.069 0.056 0.125 0.124 0.125h0.79v2.332c0 1.733 1.215 1.902 2.035 1.902 0.374 0 0.822-0.12 0.896-0.148 0.045-0.017 0.071-0.063 0.071-0.113l0.001-1.066c-0.001-0.069-0.056-0.124-0.125-0.125h-0z"></path>
</symbol>
<symbol id="icon-html5" viewBox="0 0 32 32">
<path fill="#e44d26" style="fill: var(--color11, #e44d26)" d="M6.963 29.088l-2.011-22.553h22.094l-2.013 22.549-9.048 2.508z"></path>
<path fill="#f16529" style="fill: var(--color12, #f16529)" d="M16 29.676l7.311-2.027 1.72-19.269h-9.031z"></path>
<path fill="#ebebeb" style="fill: var(--color13, #ebebeb)" d="M16 16.744h-3.66l-0.252-2.833h3.913v-2.766h-6.936l0.066 0.742 0.68 7.622h6.19zM16 23.928l-0.012 0.003-3.080-0.832-0.197-2.206h-2.777l0.387 4.343 5.666 1.573 0.013-0.004z"></path>
<path fill="#000" style="fill: var(--color14, #000)" d="M7.008 0.407h1.405v1.389h1.286v-1.389h1.406v4.205h-1.406v-1.408h-1.286v1.408h-1.406v-4.205zM12.954 1.802h-1.238v-1.395h3.881v1.395h-1.238v2.811h-1.406v-2.811zM16.214 0.407h1.465l0.902 1.478 0.901-1.478h1.466v4.205h-1.4v-2.084l-0.967 1.495h-0.024l-0.968-1.495v2.084h-1.375v-4.205zM21.648 0.407h1.406v2.816h1.977v1.39h-3.383v-4.206z"></path>
<path fill="#fff" style="fill: var(--color15, #fff)" d="M15.991 16.744v2.766h3.406l-0.321 3.587-3.085 0.833v2.878l5.671-1.572 0.041-0.468 0.65-7.282 0.067-0.742h-0.745zM15.991 11.146v2.766h6.681l0.055-0.622 0.126-1.402 0.066-0.742z"></path>
</symbol>
<symbol id="icon-sass" viewBox="0 0 32 32">
<path fill="#cb6699" style="fill: var(--color16, #cb6699)" d="M0.305 14.039c0 0.176 0.052 0.292 0.081 0.405 0.189 0.733 0.595 1.363 1.077 1.936 0.686 0.818 1.527 1.477 2.389 2.096 0.747 0.537 1.509 1.062 2.259 1.595 0.129 0.091 0.25 0.197 0.39 0.309-0.12 0.065-0.22 0.122-0.324 0.175-0.99 0.502-1.942 1.065-2.82 1.747-0.529 0.411-1.040 0.848-1.402 1.419-0.581 0.918-0.787 1.896-0.354 2.94 0.127 0.305 0.32 0.569 0.592 0.763 0.088 0.063 0.187 0.125 0.29 0.15 0.264 0.062 0.534 0.103 0.802 0.152l0.758-0c0.838-0.075 1.602-0.362 2.292-0.838 1.078-0.744 1.804-1.741 2.116-3.022 0.227-0.93 0.236-1.862-0.031-2.788-0.032-0.107-0.062-0.191-0.096-0.273l0.007 0.020c-0.033-0.083-0.071-0.164-0.116-0.268l1.719-0.988 0.026 0.022c-0.031 0.102-0.065 0.204-0.093 0.308-0.204 0.746-0.34 1.505-0.291 2.279 0.052 0.825 0.282 1.597 0.765 2.287 0.39 0.558 1.321 0.578 1.736 0.019 0.147-0.199 0.29-0.407 0.397-0.628 0.28-0.579 0.54-1.168 0.807-1.753l0.047-0.107c-0.019 0.277-0.042 0.52-0.052 0.764-0.016 0.38 0.006 0.758 0.136 1.12 0.111 0.309 0.3 0.541 0.655 0.581 0.242 0.028 0.436-0.083 0.614-0.224 0.274-0.218 0.499-0.484 0.666-0.786l0.007-0.013c0.475-0.873 0.963-1.74 1.394-2.635 0.466-0.968 0.873-1.964 1.306-2.948l0.072-0.174c0.102 0.402 0.174 0.795 0.305 1.168 0.152 0.432 0.341 0.854 0.547 1.264 0.097 0.194 0.086 0.32-0.049 0.482-0.564 0.68-1.118 1.368-1.673 2.056-0.123 0.152-0.245 0.306-0.347 0.472-0.059 0.098-0.101 0.213-0.119 0.336l-0.001 0.005c-0.003 0.020-0.005 0.043-0.005 0.067 0 0.21 0.15 0.386 0.348 0.426l0.003 0c0.153 0.034 0.328 0.054 0.509 0.054 0.059 0 0.118-0.002 0.176-0.006l-0.008 0c0.774-0.057 1.477-0.329 2.099-0.789 0.805-0.596 1.064-1.41 0.869-2.375-0.053-0.262-0.146-0.516-0.237-0.768-0.041-0.114-0.044-0.194 0.031-0.299 0.644-0.919 1.194-1.895 1.705-2.892 0.020-0.039 0.041-0.078 0.076-0.12 0.166 0.863 0.415 1.694 0.862 2.448-0.228 0.22-0.454 0.419-0.658 0.639-0.45 0.483-0.84 1.009-1.043 1.649-0.087 0.276-0.155 0.556-0.116 0.851 0.061 0.458 0.436 0.755 0.886 0.651 0.963-0.223 1.795-0.677 2.403-1.481 0.409-0.541 0.446-1.145 0.275-1.778-0.047-0.172-0.103-0.341-0.163-0.538 0.238-0.074 0.47-0.162 0.709-0.217 1.245-0.284 2.476-0.235 3.675 0.215 0.7 0.262 1.266 0.702 1.602 1.393 0.41 0.845 0.183 1.646-0.613 2.18-0.074 0.050-0.159 0.089-0.221 0.151-0.033 0.038-0.053 0.088-0.053 0.142 0 0.009 0.001 0.018 0.002 0.027l-0-0.001c0.005 0.031 0.087 0.069 0.133 0.069 0.262-0.002 0.474-0.139 0.678-0.28 0.511-0.353 0.883-0.829 0.963-1.454l0.016-0.047-0.019-0.407c-0.008-0.023 0.006-0.047 0.004-0.064-0.108-0.911-0.595-1.618-1.303-2.172-0.82-0.641-1.788-0.905-2.812-0.947-0.081-0.004-0.177-0.006-0.273-0.006-0.778 0-1.523 0.14-2.212 0.396l0.044-0.014c-0.224 0.081-0.447 0.177-0.672 0.268-0.030-0.055-0.063-0.107-0.090-0.162-0.232-0.474-0.512-0.927-0.574-1.471-0.044-0.386-0.098-0.771-0.006-1.153 0.088-0.367 0.203-0.728 0.311-1.091 0.056-0.187 0.017-0.291-0.162-0.375-0.057-0.029-0.123-0.051-0.192-0.064l-0.004-0.001c-0.438-0.063-0.869-0.027-1.293 0.096-0.15 0.044-0.259 0.128-0.292 0.294-0.019 0.095-0.058 0.187-0.085 0.28-0.111 0.391-0.189 0.789-0.368 1.161-0.448 0.934-0.96 1.832-1.485 2.724-0.057 0.096-0.116 0.191-0.188 0.308-0.184-0.385-0.38-0.73-0.44-1.136-0.067-0.458-0.12-0.915-0.006-1.37 0.085-0.339 0.195-0.672 0.297-1.006 0.048-0.159 0.026-0.242-0.118-0.326-0.073-0.042-0.155-0.080-0.237-0.092-0.132-0.021-0.284-0.033-0.438-0.033-0.322 0-0.631 0.052-0.921 0.149l0.021-0.006c-0.136 0.044-0.207 0.132-0.248 0.272-0.122 0.413-0.226 0.836-0.397 1.229-0.694 1.59-1.407 3.172-2.12 4.753-0.149 0.33-0.323 0.649-0.491 0.971-0.043 0.081-0.104 0.153-0.158 0.23-0.043-0.050-0.059-0.085-0.059-0.119 0.001-0.203-0.023-0.413 0.016-0.609 0.172-0.881 0.309-1.479 0.458-2.072l-0.063 0.297c0.117-0.486 0.254-0.968 0.384-1.452 0.044-0.162 0.044-0.313-0.072-0.449-0.195-0.228-0.603-0.278-0.845-0.102l-0.107 0.061 0.021-0.172c0.051-0.37 0.061-0.738-0.040-1.102-0.127-0.454-0.45-0.715-0.921-0.701-0.22 0.007-0.45 0.044-0.653 0.124-0.855 0.335-1.512 0.928-2.072 1.642-0.052 0.066-0.115 0.12-0.186 0.162l-0.003 0.002c-0.723 0.401-1.449 0.797-2.174 1.195l-0.807 0.442c-0.216-0.206-0.413-0.421-0.636-0.602-0.682-0.556-1.375-1.098-2.061-1.648-0.609-0.487-1.198-0.995-1.649-1.64-0.336-0.48-0.552-1.005-0.572-1.599-0.026-0.756 0.188-1.447 0.573-2.091 0.493-0.823 1.164-1.483 1.903-2.082 0.781-0.633 1.626-1.169 2.502-1.66 1.225-0.686 2.485-1.293 3.837-1.694 1.386-0.411 2.791-0.646 4.241-0.482 0.57 0.064 1.123 0.195 1.632 0.474 0.389 0.213 0.709 0.492 0.857 0.929 0.146 0.43 0.142 0.865 0.041 1.301-0.206 0.883-0.69 1.612-1.299 2.263-0.998 1.067-2.216 1.793-3.588 2.273-0.714 0.259-1.544 0.444-2.404 0.518l-0.037 0.003c-0.682 0.057-1.35-0.003-1.996-0.241-0.428-0.157-0.8-0.398-1.1-0.747-0.053-0.063-0.122-0.13-0.222-0.072-0.098 0.057-0.115 0.15-0.082 0.245 0.055 0.156 0.105 0.319 0.191 0.46 0.214 0.351 0.527 0.606 0.871 0.825 0.661 0.42 1.399 0.562 2.165 0.594 1.162 0.050 2.296-0.123 3.413-0.435 1.596-0.445 2.983-1.231 4.096-2.471 0.927-1.033 1.588-2.198 1.73-3.605 0.069-0.687-0.005-1.359-0.326-1.986-0.349-0.679-0.903-1.183-1.566-1.531-0.965-0.506-2.008-0.801-3.083-0.801h-1.078c-1.303 0-2.562 0.373-3.786 0.819-0.927 0.337-1.835 0.735-2.717 1.176-1.921 0.96-3.709 2.117-5.179 3.708-0.732 0.793-1.352 1.668-1.708 2.697-0.087 0.235-0.183 0.548-0.263 0.867l-0.015 0.070zM7.286 22.59c-0.083 1.115-0.588 2.018-1.414 2.75-0.465 0.412-0.997 0.704-1.618 0.808-0.225 0.037-0.455 0.046-0.673-0.047-0.311-0.133-0.381-0.409-0.387-0.703-0.009-0.469 0.155-0.893 0.38-1.297 0.294-0.526 0.725-0.927 1.185-1.302 0.725-0.59 1.511-1.090 2.317-1.561l0.061-0.025c0.125 0.46 0.184 0.914 0.149 1.377zM13.576 17.745c-0.059 0.356-0.132 0.712-0.236 1.057-0.36 1.194-0.821 2.352-1.321 3.493-0.092 0.211-0.226 0.404-0.343 0.604-0.021 0.032-0.044 0.059-0.070 0.083l-0 0c-0.145 0.143-0.281 0.135-0.354-0.052-0.085-0.217-0.137-0.449-0.182-0.679-0.030-0.154-0.023-0.316-0.033-0.474 0.010-1.123 0.352-2.145 0.934-3.095 0.24-0.392 0.501-0.765 0.899-1.014 0.115-0.073 0.247-0.133 0.388-0.174l0.011-0.003c0.213-0.060 0.343 0.038 0.308 0.252zM17.867 23.212l1.542-1.801c0.064 0.669-1.073 2.004-1.542 1.801zM22.793 22c-0.109 0.063-0.228 0.108-0.34 0.165-0.102 0.053-0.136-0-0.139-0.088-0-0.004-0-0.010-0-0.015 0-0.059 0.009-0.116 0.024-0.17l-0.001 0.004c0.208-0.735 0.591-1.361 1.162-1.872l0.040-0.020c0.271 0.759-0.042 1.592-0.747 1.995z"></path>
</symbol>
<symbol id="icon-vscode" viewBox="0 0 32 32">
<path fill="#2489ca" style="fill: var(--color17, #2489ca)" d="M0.914 11.261s-0.757-0.548 0.152-1.278l2.117-1.899s0.607-0.64 1.247-0.082l19.544 14.832v7.113s-0.010 1.117-1.439 0.994z"></path>
<path fill="#1070b3" style="fill: var(--color18, #1070b3)" d="M5.952 15.845l-5.038 4.591s-0.517 0.386 0 1.076l2.339 2.132s0.555 0.599 1.377-0.082l5.34-4.059z"></path>
<path fill="#0877b9" style="fill: var(--color19, #0877b9)" d="M14.796 15.883l9.238-7.071-0.060-7.074s-0.395-1.544-1.711-0.74l-12.294 11.215z"></path>
<path fill="#3c99d4" style="fill: var(--color20, #3c99d4)" d="M22.535 30.949c0.536 0.551 1.187 0.37 1.187 0.37l7.199-3.555c0.922-0.63 0.793-1.411 0.793-1.411v-21.236c0-0.934-0.953-1.256-0.953-1.256l-6.24-3.015c-1.363-0.845-2.257 0.152-2.257 0.152s1.148-0.829 1.711 0.74v28.079c0 0.193-0.041 0.383-0.123 0.553-0.164 0.333-0.521 0.642-1.376 0.513z"></path>
</symbol>
</defs></svg>